# xmcd CD database file
#
# Track frame offsets:
#	187
#	17712
#	33232
#
# Disc length: 769 seconds
#
# Revision: 0
# Processed by: cddbd v1.5.1PL0 Copyright (c) Steve Scherf et al.
# Submitted via: CDex 1.51
#
DISCID=1802ff03
DTITLE=hal - ブルーレコード
DYEAR=1998
DGENRE=Rock
TTITLE0=ブルーレコード
TTITLE1=La la la . . .
TTITLE2=ひとあしおくれの春(Tambourine Mix)
EXTD=YEAR: 1998
EXTT0=
EXTT1=
EXTT2=
PLAYORDER=
